HIERARCHY
ROOT Hips
{
	OFFSET 0.00000 0.00000 0.00000
	CHANNELS 6 Xposition Yposition Zposition Zrotation Yrotation Xrotation 
	JOINT LHipJoint
	{
		OFFSET 0 0 0
		CHANNELS 3 Zrotation Yrotation Xrotation
		JOINT LeftHip
		{
			OFFSET 1.28366 -1.58472 0.87544
			CHANNELS 3 Zrotation Yrotation Xrotation
			JOINT LeftKnee
			{
				OFFSET 2.18587 -6.00562 0.00000
				CHANNELS 3 Zrotation Yrotation Xrotation
				JOINT LeftAnkle
				{
					OFFSET 2.39085 -6.56880 0.00000
					CHANNELS 3 Zrotation Yrotation Xrotation
					JOINT LeftToe
					{
						OFFSET 0.12003 -0.32979 2.03101
						CHANNELS 3 Zrotation Yrotation Xrotation
						End Site
						{
							OFFSET 0.00000 -0.00000 1.04074
						}
					}
				}
			}
		}
	}
	JOINT RHipJoint
	{
		OFFSET 0 0 0
		CHANNELS 3 Zrotation Yrotation Xrotation
		JOINT RightHip
		{
			OFFSET -1.21795 -1.58472 0.87544
			CHANNELS 3 Zrotation Yrotation Xrotation
			JOINT RightKnee
			{
				OFFSET -2.22714 -6.11902 0.00000
				CHANNELS 3 Zrotation Yrotation Xrotation
				JOINT RightAnkle
				{
					OFFSET -2.40306 -6.60235 0.00000
					CHANNELS 3 Zrotation Yrotation Xrotation
					JOINT RightToe
					{
						OFFSET -0.15519 -0.42640 1.91430
						CHANNELS 3 Zrotation Yrotation Xrotation
						End Site
						{
							OFFSET -0.00000 -0.00000 0.99082
						}
					}
				}
			}
		}
	}
	JOINT lowerback
	{
		OFFSET 0 0 0
		CHANNELS 3 Zrotation Yrotation Xrotation
		JOINT Chest
		{
			OFFSET 0.01180 1.76430 -0.06387
			CHANNELS 3 Zrotation Yrotation Xrotation
			JOINT Chest2
			{
				OFFSET -0.00388 1.74651 0.09536
				CHANNELS 3 Zrotation Yrotation Xrotation
				JOINT lowerneck
				{
					OFFSET 0 0 0
					CHANNELS 3 Zrotation Yrotation Xrotation
					JOINT Neck
					{
						OFFSET 0.04111 1.46174 0.14397
						CHANNELS 3 Zrotation Yrotation Xrotation
						JOINT Head
						{
							OFFSET 0.00502 1.44580 -0.31711
							CHANNELS 3 Zrotation Yrotation Xrotation
							End Site
							{
								OFFSET -0.00395 1.49251 -0.12327
							}
						}
					}
				}
				JOINT LeftCollar
				{
					OFFSET 0 0 0
					CHANNELS 3 Zrotation Yrotation Xrotation
					JOINT LeftShoulder
					{
						OFFSET 2.70917 1.34870 -0.15417
CHANNELS 3 Zrotation Xrotation Yrotation
						JOINT LeftElbow
						{
OFFSET 0 -4.466100 -0.000000
CHANNELS 3 Zrotation Xrotation Yrotation
							JOINT LeftWrist
							{
OFFSET 0 -3.414140 0.000000
CHANNELS 3 Zrotation Xrotation Yrotation
								JOINT lhand
								{
									OFFSET 0 0 0
CHANNELS 3 Zrotation Xrotation Yrotation
									JOINT LFingers
									{
OFFSET 0 -0.328300 0.000000
CHANNELS 3 Zrotation Xrotation Yrotation
										End Site
										{
OFFSET 0 -0.264680 0.000000
										}
									}
								}
								JOINT LThumb
								{
OFFSET 0 0.000000 0.000000
CHANNELS 3 Zrotation Xrotation Yrotation
									End Site
									{
OFFSET 0 -0.268720 0.268720
									}
								}
							}
						}
					}
				}
				JOINT RightCollar
				{
					OFFSET 0 0 0
					CHANNELS 3 Zrotation Yrotation Xrotation
					JOINT RightShoulder
					{
						OFFSET -3.06316 1.13725 -0.10883
CHANNELS 3 Zrotation Xrotation Yrotation
						JOINT RightElbow
						{
OFFSET 0 -4.404310 0.000000
CHANNELS 3 Zrotation Xrotation Yrotation
							JOINT RightWrist
							{
OFFSET 0 -3.046880 0.000000
CHANNELS 3 Zrotation Xrotation Yrotation
								JOINT rhand
								{
									OFFSET 0 0 0
CHANNELS 3 Zrotation Xrotation Yrotation
									JOINT RFingers
									{
OFFSET 0 -0.500490 0.000000
CHANNELS 3 Zrotation Xrotation Yrotation
										End Site
										{
OFFSET 0 -0.403510 0.000000
										}
									}
								}
								JOINT RThumb
								{
OFFSET 0 0.000000 0.000000
CHANNELS 3 Zrotation Xrotation Yrotation
									End Site
									{
OFFSET 0 -0.409670 0.409670
									}
								}
							}
						}
					}
				}
			}
		}
	}
}
MOTION
Frames: 8
Frame Time: 0.008333333333333333
6.930798 15.803156 0.336026 -20.395444 -69.727549 26.480594 0.000000 0.000000 0.000000 -0.195671 -14.700399 -10.551160 0.667650 5.225399 14.552532 0.130622 -1.793752 -6.438938 0.494944 -4.510205 -12.516802 0.000000 0.000000 0.000000 24.645453 6.473142 -8.880693 -1.337827 -7.323548 20.677461 1.784905 -25.206756 -21.304604 -0.166937 -2.632130 7.256100 2.273756 5.500642 -2.352105 -0.511168 7.284987 -1.802862 -1.607660 3.620891 -0.192638 4.022941 3.737259 -11.136356 9.511335 -2.967192 50.176083 3.752944 0.001110 24.156735 0.000000 0.000000 0.000000 3.550853 11.510008 -18.224962 44.899578 -50.719202 22.160987 24.594921 13.762338 -22.673543 0.000000 0.000000 0.000000 -7.125000 0.000000 0.000000 -4.694583 54.595279 1.108365 0.000000 0.000000 0.000000 -3.367708 9.844553 5.611543 -42.937512 -49.717127 -20.653054 -15.420951 -37.356279 -8.465299 0.000000 0.000000 0.000000 7.125000 0.000000 0.000000 8.266526 21.240245 4.758973
6.986119 15.817226 0.423229 -19.154086 -69.736080 25.685214 0.000000 0.000000 0.000000 -0.902929 -14.702860 -11.384927 0.696159 5.333571 14.862495 0.127275 -2.239912 -6.335712 0.456124 -4.332428 -12.013918 0.000000 0.000000 0.000000 23.824649 7.701131 -8.675527 -1.290773 -7.198837 20.305703 1.976108 -26.256076 -21.925822 -0.221078 -3.026276 8.351966 1.813685 5.034604 -2.469938 0.370710 6.666756 -1.900805 -0.481478 3.314345 -0.411418 3.997790 3.517553 -11.419655 12.213870 -4.659032 48.906568 4.848975 -0.330690 23.517792 0.000000 0.000000 0.000000 2.697548 12.988587 -18.732633 44.834277 -50.687026 22.110526 24.656213 14.058584 -22.726326 0.000000 0.000000 0.000000 -7.125000 0.000000 0.000000 -4.647500 54.663403 1.104970 0.000000 0.000000 0.000000 -3.924003 9.467309 4.838395 -42.784985 -49.636055 -20.536737 -15.621249 -37.357172 -8.437952 0.000000 0.000000 0.000000 7.125000 0.000000 0.000000 8.123010 21.258773 4.671233
7.037362 15.829365 0.509937 -17.856508 -69.631618 24.826120 0.000000 0.000000 0.000000 -1.587101 -14.733389 -12.221033 0.724105 5.437396 15.160358 0.122386 -2.764731 -6.229723 0.430309 -4.209914 -11.667954 0.000000 0.000000 0.000000 23.017553 8.781016 -8.514550 -1.250031 -7.088551 19.977966 2.151027 -27.226726 -22.661908 -0.287260 -3.446194 9.523584 1.247819 4.520701 -2.523164 1.179286 5.989149 -2.054712 0.624710 2.981414 -0.697789 3.834365 3.109277 -11.768835 15.054538 -6.504367 47.085894 5.907033 -0.748022 22.645624 0.000000 0.000000 0.000000 2.165535 14.533543 -19.689067 44.936506 -50.737317 22.189620 23.765287 13.382680 -22.180415 0.000000 0.000000 0.000000 -7.125000 0.000000 0.000000 -5.397687 53.910945 1.184723 0.000000 0.000000 0.000000 -4.307424 9.093455 3.757956 -42.642756 -49.560000 -20.428449 -15.578120 -37.188863 -8.348721 0.000000 0.000000 0.000000 7.125000 0.000000 0.000000 8.156517 21.352373 4.673433
7.083185 15.838195 0.596680 -16.786932 -69.496516 24.088311 0.000000 0.000000 0.000000 -2.206992 -14.684994 -12.970090 0.757173 5.557387 15.505471 0.117994 -3.369441 -6.189584 0.399483 -4.057999 -11.239826 0.000000 0.000000 0.000000 22.301536 9.635750 -8.303436 -1.208990 -6.975556 19.642901 2.295296 -28.028539 -23.360132 -0.352709 -3.815347 10.557756 0.655489 3.999071 -2.385507 1.938719 5.307253 -2.246837 1.689385 2.650249 -1.096685 3.283099 2.547001 -12.196822 18.283270 -8.420241 44.668895 7.124786 -1.263287 21.630750 0.000000 0.000000 0.000000 1.912198 16.113725 -21.072441 45.234613 -50.882863 22.420642 23.083686 12.582471 -21.764505 0.000000 0.000000 0.000000 -7.125000 0.000000 0.000000 -5.963743 53.342984 1.227158 0.000000 0.000000 0.000000 -4.505665 8.832384 2.435279 -42.689169 -49.584842 -20.463804 -15.720253 -36.971349 -8.335195 0.000000 0.000000 0.000000 7.125000 0.000000 0.000000 8.054417 21.359593 4.612482
7.125480 15.844401 0.682185 -15.932449 -69.340409 23.508082 0.000000 0.000000 0.000000 -2.748591 -14.520148 -13.679683 0.790529 5.675537 15.845961 0.110649 -4.096392 -6.159344 0.356869 -3.837719 -10.620664 0.000000 0.000000 0.000000 21.664170 10.200923 -8.157568 -1.170996 -6.868864 19.327391 2.402860 -28.610652 -23.883372 -0.408556 -4.102955 11.366535 0.013515 3.461709 -2.086283 2.650081 4.607914 -2.475856 2.736151 2.316634 -1.592614 2.589994 1.961232 -12.552231 21.719751 -10.079272 41.606929 8.374573 -1.737999 20.368197 0.000000 0.000000 0.000000 1.938974 17.761306 -22.778648 45.911107 -51.206950 22.946708 22.037443 11.859760 -21.691323 0.000000 0.000000 0.000000 -7.125000 0.000000 0.000000 -7.006510 53.070515 1.396406 0.000000 0.000000 0.000000 -4.609430 8.754730 1.124539 -43.023580 -49.762629 -20.718742 -15.979584 -36.988093 -8.149122 0.000000 0.000000 0.000000 7.125000 0.000000 0.000000 7.872176 21.538527 4.473906
7.163350 15.849823 0.767149 -15.098608 -69.259121 22.943540 0.000000 0.000000 0.000000 -3.314962 -14.278411 -14.294858 0.814153 5.757793 16.083200 0.099790 -4.812050 -6.114570 0.313922 -3.601580 -9.958350 0.000000 0.000000 0.000000 20.988138 10.493277 -8.169223 -1.143872 -6.791555 19.099240 2.463992 -28.928018 -24.157018 -0.449766 -4.302676 11.929778 -0.713408 2.923721 -1.731174 3.250438 3.906798 -2.736526 3.732631 1.989778 -2.119879 2.359590 1.482358 -12.432055 24.956687 -11.164693 38.011826 9.375805 -2.014183 18.566240 0.000000 0.000000 0.000000 2.252236 19.414728 -24.595424 46.830663 -51.634327 23.665687 20.518290 11.251526 -21.770272 0.000000 0.000000 0.000000 -7.125000 0.000000 0.000000 -8.570946 52.872690 1.670072 0.000000 0.000000 0.000000 -4.587256 8.848127 -0.201417 -43.498936 -50.011522 -21.082305 -16.244770 -37.139268 -8.016413 0.000000 0.000000 0.000000 7.125000 0.000000 0.000000 7.683768 21.662817 4.343027
7.195844 15.854940 0.851807 -14.185892 -69.292046 22.316069 0.000000 0.000000 0.000000 -3.951851 -14.020237 -14.786293 0.827574 5.803761 16.216152 0.091672 -5.371388 -6.132935 0.287969 -3.450931 -9.536849 0.000000 0.000000 0.000000 20.232788 10.646685 -8.305103 -1.128829 -6.748387 18.972073 2.497058 -29.084990 -24.264733 -0.473765 -4.414598 12.246140 -1.553921 2.317719 -1.370684 3.801783 3.109532 -2.961642 4.766770 1.622858 -2.579157 1.733079 1.104690 -12.669919 28.194069 -11.765365 34.134923 10.457809 -2.223956 17.039970 0.000000 0.000000 0.000000 2.577849 20.890122 -26.117308 47.828794 -52.081374 24.450537 19.340129 11.112271 -22.015757 0.000000 0.000000 0.000000 -7.125000 0.000000 0.000000 -9.845916 52.909791 1.931075 0.000000 0.000000 0.000000 -4.621681 8.893262 -1.330247 -44.018521 -50.278493 -21.481179 -16.296863 -37.323346 -8.039018 0.000000 0.000000 0.000000 7.125000 0.000000 0.000000 7.645578 21.637125 4.325566
7.223247 15.859117 0.936392 -13.220527 -69.442263 21.667885 0.000000 0.000000 0.000000 -4.637208 -13.777533 -15.187959 0.835560 5.831355 16.295732 0.090650 -5.708807 -6.245836 0.274356 -3.369109 -9.308090 0.000000 0.000000 0.000000 19.414664 10.726027 -8.543657 -1.122357 -6.729514 18.916542 2.526222 -29.171625 -24.202052 -0.471371 -4.403309 12.214095 -2.447333 1.593192 -1.056431 4.349193 2.144592 -3.094232 5.857476 1.174715 -2.862455 0.833663 0.859240 -12.850816 31.170058 -11.701252 30.080548 11.508412 -2.286425 15.418051 0.000000 0.000000 0.000000 2.725400 22.100149 -26.983006 49.204709 -52.669157 25.540577 17.944213 11.044572 -22.025344 0.000000 0.000000 0.000000 -7.125000 0.000000 0.000000 -11.243284 52.668771 2.143336 0.000000 0.000000 0.000000 -4.867923 8.687502 -2.053548 -44.567620 -50.554835 -21.904418 -16.118065 -37.564958 -7.972483 0.000000 0.000000 0.000000 7.125000 0.000000 0.000000 7.776697 21.713854 4.387342
